<svg viewBox="0 0 40 40" xmlns="http://www.w3.org/2000/svg" aria-hidden="true">
  <circle cx="20" cy="20" r="17" fill="#8B2331"/>
  <path d="M 13.5 10.5 C 16 9, 20 9, 22.5 10 C 25 11, 27 13, 27.5 16 C 28 19, 27 22, 26 24 C 25 26, 23 28, 21 29.5 C 19 30.5, 17 30, 15.5 28 C 14 26, 13 23, 12.8 20 C 12.6 17, 12.5 13.5, 13.5 10.5 Z" fill="#FBF6EF"/>
  <path d="M 11.5 9 C 12 8.3, 13 8.3, 13.6 8.8 C 13.8 9.4, 13 10, 12 9.8 C 11.6 9.6, 11.4 9.3, 11.5 9 Z" fill="#FBF6EF"/>
  <circle cx="25.5" cy="26" r="0.7" fill="#FBF6EF"/>
  <path d="M 32 14 A 17 17 0 0 1 32 26" fill="none" stroke="#1A1612" stroke-width="0.6" opacity="0.18" stroke-linecap="round"/>
</svg>
